<svg width="120" height="120" viewBox="0 0 120 120" fill="none" xmlns="http://www.w3.org/2000/svg">
<path d="M10.3947 13.5131H109.251V112.369H10.3947V13.5131Z" fill="white" fill-opacity="0.01"/>
<path d="M28.9302 73.2388C34.6173 73.2388 39.2278 68.6283 39.2278 62.9412C39.2278 68.6283 43.8382 73.2388 49.5253 73.2388C55.2124 73.2388 59.8228 68.6283 59.8228 62.9412C59.8228 68.6283 64.4332 73.2388 70.1204 73.2388C75.8075 73.2388 80.4179 68.6283 80.4179 62.9412C80.4179 68.6283 85.0283 73.2388 90.7154 73.2388C96.4026 73.2388 101.013 68.6283 101.013 62.9412C101.013 85.6899 82.5715 104.131 59.8228 104.131C37.0741 104.131 18.6327 85.6899 18.6327 62.9412C18.6327 68.6283 23.2431 73.2388 28.9302 73.2388Z" fill="#2567BF" stroke="#4C8BE0" stroke-width="7.92525" stroke-linecap="round" stroke-linejoin="round"/>
<path d="M68.0609 40.2867C68.0609 44.8363 64.3725 48.5247 59.8228 48.5247C55.2732 48.5247 51.5848 44.8363 51.5848 40.2867C51.5848 35.737 59.8228 21.7511 59.8228 21.7511C59.8228 21.7511 68.0609 35.737 68.0609 40.2867Z" fill="#2567BF" stroke="#4C8BE0" stroke-width="7.92525" stroke-linecap="round" stroke-linejoin="round"/>
</svg>
