<svg width="120" height="120" viewBox="0 0 120 120" fill="none" xmlns="http://www.w3.org/2000/svg">
<path d="M50.6565 25.0026C53.5851 21.9715 58.0924 22.1175 60.762 25.3092C67.3223 33.1528 77.151 47.8345 81.3723 69.0709C82.8692 76.6018 80.0486 82.0232 74.9719 85.7057C69.7444 89.4975 62.0466 91.4572 54.135 91.3912C46.2256 91.3253 38.5097 89.2385 33.2639 85.402C28.3128 81.7809 25.5478 76.6362 26.7278 69.7565L26.8538 69.0856C31.1749 48.0483 42.9886 32.9388 50.6565 25.0026Z" fill="#F9FCF8" stroke="#2567BF" stroke-width="4.81016"/>
<path d="M74.4508 48.8209C77.1566 45.868 81.4282 46.0194 83.8678 49.1255C88.1179 54.5377 93.472 63.3182 95.9489 75.3433C96.4361 77.7091 96.1903 79.6395 95.5036 81.2232C94.8098 82.8229 93.5995 84.2217 91.9303 85.3902C88.5431 87.7614 83.472 89.0294 78.1852 88.9869C72.9009 88.9443 67.8137 87.5951 64.4088 85.192C62.7286 84.006 61.5155 82.6068 60.8229 81.0338C60.1394 79.4812 59.8982 77.6162 60.3786 75.3589C62.9323 63.3604 69.4068 54.3257 74.4508 48.8209Z" fill="#2567BF" stroke="#F9FCF8" stroke-width="4.81016"/>
<path d="M50.507 81.7728C34.8741 81.7731 33.6722 73.2874 39.6846 62.532" stroke="#2567BF" stroke-width="4.81016" stroke-linecap="round"/>
</svg>
