<svg width="120" height="120" viewBox="0 0 120 120" fill="none" xmlns="http://www.w3.org/2000/svg">
<path fill-rule="evenodd" clip-rule="evenodd" d="M10.3947 13.5131H109.251V112.369H10.3947V13.5131Z" fill="white" fill-opacity="0.01"/>
<path d="M47.4658 67.0588V34.1081C47.4658 27.2835 52.9982 21.7511 59.8228 21.7511C66.6474 21.7511 72.1799 27.2835 72.1799 34.1081V67.0588C77.1822 70.8161 80.4179 76.7984 80.4179 83.5363C80.4179 94.9107 71.1972 104.131 59.8228 104.131C48.4485 104.131 39.2278 94.9107 39.2278 83.5363C39.2278 76.7984 42.4635 70.8161 47.4658 67.0588Z" fill="#2567BF" stroke="#2F80ED" stroke-opacity="0.8" stroke-width="7.92525" stroke-linejoin="round"/>
<path d="M59.8228 48.5247V75.2983" stroke="white" stroke-width="7.92525" stroke-linecap="round" stroke-linejoin="round"/>
<path d="M59.8228 91.7744C64.3726 91.7744 68.0609 88.0861 68.0609 83.5364C68.0609 78.9866 64.3726 75.2983 59.8228 75.2983C55.2731 75.2983 51.5848 78.9866 51.5848 83.5364C51.5848 88.0861 55.2731 91.7744 59.8228 91.7744Z" fill="#2567BF" stroke="white" stroke-width="7.92525" stroke-linejoin="round"/>
</svg>
